#include "hUGEDriver.h"
#include <stddef.h>

static const unsigned char order_cnt = 36;

static const unsigned char P0[] = {
    DN(___,0,0x000),
    DN(___,0,0x000),
    DN(___,0,0x000),
    DN(___,0,0x000),
    DN(___,0,0x000),
    DN(___,0,0x000),
    DN(___,0,0x000),
    DN(___,0,0x000),
    DN(___,0,0x000),
    DN(___,0,0x000),
    DN(___,0,0x000),
    DN(___,0,0x000),
    DN(___,0,0x000),
    DN(___,0,0x000),
    DN(___,0,0x000),
    DN(___,0,0x000),
    DN(___,0,0x000),
    DN(___,0,0x000),
    DN(___,0,0x000),
    DN(___,0,0x000),
    DN(___,0,0x000),
    DN(___,0,0x000),
    DN(___,0,0x000),
    DN(___,0,0x000),
    DN(___,0,0x000),
    DN(___,0,0x000),
    DN(___,0,0x000),
    DN(___,0,0x000),
    DN(___,0,0x000),
    DN(___,0,0x000),
    DN(___,0,0x000),
    DN(___,0,0x000),
    DN(___,0,0x000),
    DN(___,0,0x000),
    DN(___,0,0x000),
    DN(___,0,0x000),
    DN(___,0,0x000),
    DN(___,0,0x000),
    DN(___,0,0x000),
    DN(___,0,0x000),
    DN(___,0,0x000),
    DN(___,0,0x000),
    DN(___,0,0x000),
    DN(___,0,0x000),
    DN(___,0,0x000),
    DN(___,0,0x000),
    DN(___,0,0x000),
    DN(___,0,0x000),
    DN(___,0,0x000),
    DN(___,0,0x000),
    DN(___,0,0x000),
    DN(___,0,0x000),
    DN(___,0,0x000),
    DN(___,0,0x000),
    DN(___,0,0x000),
    DN(___,0,0x000),
    DN(___,0,0x000),
    DN(___,0,0x000),
    DN(___,0,0x000),
    DN(___,0,0x000),
    DN(___,0,0x000),
    DN(___,0,0x000),
    DN(___,0,0x000),
    DN(___,0,0x000),
};
static const unsigned char P1[] = {
    DN(C_8,2,0xF06),
    DN(___,0,0x000),
    DN(C_8,2,0x000),
    DN(C_8,2,0x000),
    DN(C_8,2,0xF03),
    DN(___,0,0x000),
    DN(___,0,0x000),
    DN(___,0,0x000),
    DN(C_7,1,0xF06),
    DN(___,0,0x000),
    DN(C_8,2,0x000),
    DN(___,0,0x000),
    DN(C_8,2,0xF03),
    DN(___,0,0x000),
    DN(___,0,0x000),
    DN(___,0,0x000),
    DN(C_8,2,0x000),
    DN(___,0,0x000),
    DN(C_8,2,0x000),
    DN(___,0,0x000),
    DN(C_8,2,0x000),
    DN(___,0,0x000),
    DN(___,0,0x000),
    DN(___,0,0x000),
    DN(C_7,1,0x000),
    DN(___,0,0x000),
    DN(___,0,0x000),
    DN(___,0,0x000),
    DN(C_8,4,0x000),
    DN(___,0,0x000),
    DN(___,0,0x000),
    DN(___,0,0x000),
    DN(C_8,2,0xF06),
    DN(___,0,0x000),
    DN(C_8,2,0x000),
    DN(C_8,2,0x000),
    DN(C_8,2,0xF03),
    DN(___,0,0x000),
    DN(___,0,0x000),
    DN(___,0,0x000),
    DN(C_7,1,0xF06),
    DN(___,0,0x000),
    DN(C_8,2,0x000),
    DN(___,0,0x000),
    DN(C_8,2,0xF03),
    DN(___,0,0x000),
    DN(___,0,0x000),
    DN(___,0,0x000),
    DN(C_8,2,0x000),
    DN(___,0,0x000),
    DN(C_8,2,0x000),
    DN(___,0,0x000),
    DN(C_8,2,0x000),
    DN(___,0,0x000),
    DN(___,0,0x000),
    DN(___,0,0x000),
    DN(C_7,1,0x000),
    DN(___,0,0x000),
    DN(___,0,0x000),
    DN(___,0,0x000),
    DN(C_8,4,0x000),
    DN(___,0,0x000),
    DN(___,0,0x000),
    DN(___,0,0x000),
};
static const unsigned char P2[] = {
    DN(C_6,14,0x481),
    DN(___,0,0x481),
    DN(___,0,0x481),
    DN(___,0,0x481),
    DN(___,0,0x481),
    DN(___,0,0x481),
    DN(___,0,0x481),
    DN(___,0,0x481),
    DN(D_6,14,0x481),
    DN(___,0,0x481),
    DN(___,0,0x481),
    DN(___,0,0x481),
    DN(___,0,0x481),
    DN(___,0,0x481),
    DN(___,0,0x481),
    DN(___,0,0x481),
    DN(Ds6,14,0x481),
    DN(___,0,0x481),
    DN(___,0,0x481),
    DN(___,0,0x481),
    DN(___,0,0xE00),
    DN(___,0,0x000),
    DN(___,0,0x000),
    DN(___,0,0x000),
    DN(F_6,14,0x481),
    DN(___,0,0x481),
    DN(___,0,0x481),
    DN(___,0,0x481),
    DN(G_6,14,0x481),
    DN(___,0,0x481),
    DN(___,0,0x481),
    DN(___,0,0x481),
    DN(___,0,0x481),
    DN(___,0,0x481),
    DN(___,0,0x481),
    DN(___,0,0x481),
    DN(___,0,0x481),
    DN(___,0,0x481),
    DN(___,0,0x481),
    DN(___,0,0x481),
    DN(___,0,0x481),
    DN(___,0,0x481),
    DN(___,0,0x481),
    DN(___,0,0x481),
    DN(___,0,0x481),
    DN(___,0,0x481),
    DN(___,0,0x481),
    DN(___,0,0x481),
    DN(Gs6,14,0x481),
    DN(___,0,0x481),
    DN(___,0,0x481),
    DN(___,0,0x481),
    DN(___,0,0x481),
    DN(___,0,0x481),
    DN(___,0,0x481),
    DN(___,0,0x481),
    DN(G_6,14,0x481),
    DN(___,0,0x481),
    DN(___,0,0x481),
    DN(___,0,0x481),
    DN(___,0,0x481),
    DN(___,0,0x481),
    DN(___,0,0x481),
    DN(___,0,0x481),
};
static const unsigned char P3[] = {
    DN(Ds6,14,0x481),
    DN(F_6,14,0x481),
    DN(___,0,0x481),
    DN(___,0,0x481),
    DN(___,0,0x481),
    DN(___,0,0x481),
    DN(___,0,0x481),
    DN(___,0,0x481),
    DN(___,0,0x481),
    DN(___,0,0x481),
    DN(___,0,0x481),
    DN(___,0,0x481),
    DN(Ds6,14,0x481),
    DN(___,0,0x481),
    DN(___,0,0x481),
    DN(___,0,0x481),
    DN(F_6,14,0x481),
    DN(___,0,0x481),
    DN(___,0,0x481),
    DN(___,0,0x481),
    DN(G_6,14,0x481),
    DN(___,0,0x481),
    DN(___,0,0x481),
    DN(___,0,0x481),
    DN(F_6,14,0x481),
    DN(___,0,0x481),
    DN(___,0,0x481),
    DN(___,0,0x481),
    DN(Ds6,14,0x481),
    DN(___,0,0x481),
    DN(___,0,0x481),
    DN(___,0,0x481),
    DN(D_6,14,0x481),
    DN(___,0,0x481),
    DN(___,0,0x481),
    DN(___,0,0x481),
    DN(___,0,0x481),
    DN(___,0,0x481),
    DN(___,0,0x481),
    DN(___,0,0x481),
    DN(___,0,0x481),
    DN(___,0,0x481),
    DN(___,0,0x481),
    DN(___,0,0x481),
    DN(Cs6,14,0x481),
    DN(___,0,0x481),
    DN(___,0,0x481),
    DN(___,0,0x481),
    DN(___,0,0x481),
    DN(___,0,0x481),
    DN(___,0,0x481),
    DN(___,0,0x481),
    DN(___,0,0x481),
    DN(___,0,0x481),
    DN(___,0,0x481),
    DN(___,0,0x481),
    DN(G_5,14,0x481),
    DN(___,0,0x481),
    DN(___,0,0x481),
    DN(___,0,0x481),
    DN(___,0,0x481),
    DN(___,0,0x481),
    DN(___,0,0x481),
    DN(___,0,0x481),
};
static const unsigned char P4[] = {
    DN(C_6,14,0x481),
    DN(___,0,0x481),
    DN(___,0,0x481),
    DN(___,0,0x481),
    DN(___,0,0x481),
    DN(___,0,0x481),
    DN(___,0,0x481),
    DN(___,0,0x481),
    DN(D_6,14,0x481),
    DN(___,0,0x481),
    DN(___,0,0x481),
    DN(___,0,0x481),
    DN(___,0,0x481),
    DN(___,0,0x481),
    DN(___,0,0x481),
    DN(___,0,0x481),
    DN(Ds6,14,0x481),
    DN(___,0,0x481),
    DN(___,0,0x481),
    DN(___,0,0x481),
    DN(___,0,0xE00),
    DN(___,0,0x000),
    DN(___,0,0x000),
    DN(___,0,0x000),
    DN(Ds6,14,0x481),
    DN(As6,14,0x481),
    DN(___,0,0x481),
    DN(___,0,0x481),
    DN(G_6,14,0x481),
    DN(___,0,0x481),
    DN(___,0,0x481),
    DN(___,0,0x481),
    DN(___,0,0x481),
    DN(___,0,0x481),
    DN(___,0,0x481),
    DN(___,0,0x481),
    DN(___,0,0x481),
    DN(___,0,0x481),
    DN(___,0,0x481),
    DN(___,0,0x481),
    DN(___,0,0x481),
    DN(___,0,0x481),
    DN(___,0,0x481),
    DN(___,0,0x481),
    DN(___,0,0x481),
    DN(___,0,0x481),
    DN(___,0,0x481),
    DN(___,0,0x481),
    DN(C_7,14,0x481),
    DN(___,0,0x481),
    DN(___,0,0x481),
    DN(___,0,0x481),
    DN(As6,14,0x481),
    DN(___,0,0x481),
    DN(___,0,0x481),
    DN(___,0,0x481),
    DN(Gs6,14,0x481),
    DN(___,0,0x481),
    DN(___,0,0x481),
    DN(___,0,0x481),
    DN(G_6,14,0x481),
    DN(___,0,0x481),
    DN(___,0,0xE00),
    DN(___,0,0x000),
};
static const unsigned char P5[] = {
    DN(G_6,14,0x481),
    DN(Gs6,14,0x481),
    DN(___,0,0x481),
    DN(___,0,0x481),
    DN(___,0,0x481),
    DN(___,0,0x481),
    DN(___,0,0x481),
    DN(___,0,0x481),
    DN(F_6,14,0x481),
    DN(___,0,0x481),
    DN(___,0,0x481),
    DN(___,0,0x481),
    DN(___,0,0xE00),
    DN(___,0,0x000),
    DN(___,0,0x000),
    DN(___,0,0x000),
    DN(F_6,14,0x481),
    DN(As6,14,0x481),
    DN(___,0,0x481),
    DN(___,0,0x481),
    DN(Gs6,14,0x481),
    DN(___,0,0x481),
    DN(___,0,0x481),
    DN(___,0,0x481),
    DN(G_6,14,0x481),
    DN(___,0,0x481),
    DN(___,0,0x481),
    DN(___,0,0x481),
    DN(F_6,14,0x481),
    DN(___,0,0x481),
    DN(___,0,0x481),
    DN(___,0,0x481),
    DN(G_6,14,0x481),
    DN(___,0,0x481),
    DN(___,0,0x481),
    DN(___,0,0x481),
    DN(___,0,0x481),
    DN(___,0,0x481),
    DN(___,0,0x481),
    DN(___,0,0x481),
    DN(E_6,14,0x481),
    DN(___,0,0x481),
    DN(___,0,0x481),
    DN(___,0,0x481),
    DN(___,0,0x481),
    DN(___,0,0x481),
    DN(___,0,0x481),
    DN(___,0,0x481),
    DN(___,0,0x481),
    DN(___,0,0x481),
    DN(___,0,0x481),
    DN(___,0,0x481),
    DN(E_5,14,0x481),
    DN(___,0,0x481),
    DN(___,0,0x481),
    DN(___,0,0x481),
    DN(G_5,14,0x481),
    DN(___,0,0x481),
    DN(___,0,0x481),
    DN(___,0,0x481),
    DN(As5,14,0x481),
    DN(___,0,0x481),
    DN(___,0,0x481),
    DN(___,0,0x481),
};
static const unsigned char P6[] = {
    DN(G_6,14,0x481),
    DN(___,0,0x481),
    DN(Gs6,14,0x481),
    DN(___,0,0x481),
    DN(G_6,14,0x481),
    DN(___,0,0x481),
    DN(___,0,0x481),
    DN(___,0,0x481),
    DN(Ds6,14,0x481),
    DN(___,0,0x481),
    DN(___,0,0x481),
    DN(___,0,0x481),
    DN(___,0,0x481),
    DN(___,0,0x481),
    DN(___,0,0x481),
    DN(___,0,0x481),
    DN(___,0,0x481),
    DN(___,0,0x481),
    DN(___,0,0x481),
    DN(___,0,0x481),
    DN(Ds5,14,0x481),
    DN(___,0,0x481),
    DN(___,0,0x481),
    DN(___,0,0x481),
    DN(F_5,14,0x481),
    DN(___,0,0x481),
    DN(___,0,0x481),
    DN(___,0,0x481),
    DN(Gs5,14,0x481),
    DN(___,0,0x481),
    DN(___,0,0x481),
    DN(___,0,0x481),
    DN(F_6,14,0x481),
    DN(___,0,0x481),
    DN(G_6,14,0x481),
    DN(___,0,0x481),
    DN(F_6,14,0x481),
    DN(___,0,0x481),
    DN(___,0,0x481),
    DN(___,0,0x481),
    DN(D_6,14,0x481),
    DN(___,0,0x481),
    DN(___,0,0x481),
    DN(___,0,0x481),
    DN(___,0,0x481),
    DN(___,0,0x481),
    DN(___,0,0x481),
    DN(___,0,0x481),
    DN(___,0,0x481),
    DN(___,0,0x481),
    DN(___,0,0x481),
    DN(___,0,0x481),
    DN(___,0,0x481),
    DN(___,0,0x481),
    DN(___,0,0x481),
    DN(___,0,0x481),
    DN(F_6,14,0x481),
    DN(___,0,0x481),
    DN(___,0,0x481),
    DN(___,0,0x481),
    DN(___,0,0x481),
    DN(___,0,0x481),
    DN(___,0,0x481),
    DN(___,0,0x481),
};
static const unsigned char P7[] = {
    DN(D_6,14,0x481),
    DN(Ds6,14,0x481),
    DN(___,0,0x481),
    DN(___,0,0x481),
    DN(___,0,0x481),
    DN(___,0,0x481),
    DN(___,0,0x481),
    DN(___,0,0x481),
    DN(C_6,14,0x481),
    DN(___,0,0x481),
    DN(___,0,0x481),
    DN(___,0,0x481),
    DN(___,0,0x481),
    DN(___,0,0x481),
    DN(___,0,0x481),
    DN(___,0,0x481),
    DN(___,0,0x481),
    DN(___,0,0x481),
    DN(___,0,0x481),
    DN(___,0,0x481),
    DN(___,0,0x481),
    DN(___,0,0x481),
    DN(___,0,0x481),
    DN(___,0,0x481),
    DN(G_5,14,0x481),
    DN(___,0,0x481),
    DN(___,0,0x481),
    DN(___,0,0x481),
    DN(___,0,0x481),
    DN(___,0,0x481),
    DN(___,0,0x481),
    DN(___,0,0x481),
    DN(Gs5,14,0x481),
    DN(___,0,0x481),
    DN(___,0,0x481),
    DN(___,0,0x481),
    DN(___,0,0x481),
    DN(___,0,0x481),
    DN(___,0,0x481),
    DN(___,0,0x481),
    DN(___,0,0x481),
    DN(___,0,0x481),
    DN(___,0,0x481),
    DN(___,0,0x481),
    DN(___,0,0x481),
    DN(___,0,0x481),
    DN(___,0,0x481),
    DN(___,0,0x481),
    DN(Fs5,14,0x481),
    DN(___,0,0x481),
    DN(E_5,14,0x481),
    DN(___,0,0x481),
    DN(D_5,14,0x481),
    DN(___,0,0x481),
    DN(C_5,14,0x481),
    DN(___,0,0x481),
    DN(As4,14,0x481),
    DN(___,0,0x481),
    DN(Gs4,14,0x481),
    DN(___,0,0x481),
    DN(Fs4,14,0x481),
    DN(___,0,0x481),
    DN(E_4,14,0x481),
    DN(___,0,0x481),
};
static const unsigned char P8[] = {
    DN(D_6,14,0x481),
    DN(Ds6,14,0x481),
    DN(___,0,0x481),
    DN(___,0,0x481),
    DN(___,0,0x481),
    DN(___,0,0x481),
    DN(___,0,0x481),
    DN(___,0,0x481),
    DN(C_6,14,0x481),
    DN(___,0,0x481),
    DN(___,0,0x481),
    DN(___,0,0x481),
    DN(___,0,0x481),
    DN(___,0,0x481),
    DN(___,0,0x481),
    DN(___,0,0x481),
    DN(___,0,0x481),
    DN(___,0,0x481),
    DN(___,0,0x481),
    DN(___,0,0x481),
    DN(___,0,0x481),
    DN(___,0,0x481),
    DN(___,0,0x481),
    DN(___,0,0x481),
    DN(___,0,0x481),
    DN(___,0,0x481),
    DN(___,0,0x481),
    DN(___,0,0x481),
    DN(___,0,0x481),
    DN(___,0,0x481),
    DN(___,0,0x481),
    DN(___,0,0x481),
    DN(___,0,0xC0E),
    DN(___,0,0xC0D),
    DN(___,0,0xC0C),
    DN(___,0,0xC0B),
    DN(___,0,0xC0A),
    DN(___,0,0xC09),
    DN(___,0,0xC08),
    DN(___,0,0xC07),
    DN(___,0,0xC06),
    DN(___,0,0xC05),
    DN(___,0,0xC04),
    DN(___,0,0xC03),
    DN(___,0,0xC02),
    DN(___,0,0xC01),
    DN(___,0,0xE00),
    DN(___,0,0x000),
    DN(___,0,0x000),
    DN(___,0,0x000),
    DN(___,0,0x000),
    DN(___,0,0x000),
    DN(___,0,0x000),
    DN(___,0,0x000),
    DN(___,0,0x000),
    DN(___,0,0x000),
    DN(___,0,0x000),
    DN(___,0,0x000),
    DN(___,0,0x000),
    DN(___,0,0x000),
    DN(___,0,0x000),
    DN(___,0,0x000),
    DN(___,0,0x000),
    DN(___,0,0x000),
};
static const unsigned char P9[] = {
    DN(G_6,14,0x00C),
    DN(___,0,0x00C),
    DN(Gs6,14,0x00C),
    DN(___,0,0x00C),
    DN(G_6,14,0x00C),
    DN(___,0,0x00C),
    DN(___,0,0x00C),
    DN(___,0,0x00C),
    DN(Ds6,14,0x00C),
    DN(___,0,0x00C),
    DN(___,0,0x00C),
    DN(___,0,0x00C),
    DN(___,0,0x00C),
    DN(___,0,0x00C),
    DN(___,0,0x00C),
    DN(___,0,0x00C),
    DN(___,0,0x00C),
    DN(___,0,0x00C),
    DN(___,0,0x00C),
    DN(___,0,0x00C),
    DN(Ds5,14,0x00C),
    DN(___,0,0x00C),
    DN(___,0,0x00C),
    DN(___,0,0x00C),
    DN(F_5,14,0x00C),
    DN(___,0,0x00C),
    DN(___,0,0x00C),
    DN(___,0,0x00C),
    DN(Gs5,14,0x00C),
    DN(___,0,0x00C),
    DN(___,0,0x00C),
    DN(___,0,0x00C),
    DN(F_6,14,0x00C),
    DN(___,0,0x00C),
    DN(G_6,14,0x00C),
    DN(___,0,0x00C),
    DN(F_6,14,0x00C),
    DN(___,0,0x00C),
    DN(___,0,0x00C),
    DN(___,0,0x00C),
    DN(D_6,14,0x00C),
    DN(___,0,0x00C),
    DN(___,0,0x00C),
    DN(___,0,0x00C),
    DN(___,0,0x00C),
    DN(___,0,0x00C),
    DN(___,0,0x00C),
    DN(___,0,0x00C),
    DN(___,0,0x00C),
    DN(___,0,0x00C),
    DN(___,0,0x00C),
    DN(___,0,0x00C),
    DN(___,0,0x00C),
    DN(___,0,0x00C),
    DN(___,0,0x00C),
    DN(___,0,0x00C),
    DN(F_6,14,0x00C),
    DN(___,0,0x00C),
    DN(___,0,0x00C),
    DN(___,0,0x00C),
    DN(___,0,0x00C),
    DN(___,0,0x00C),
    DN(___,0,0x00C),
    DN(___,0,0x00C),
};
static const unsigned char P10[] = {
    DN(D_6,14,0x00C),
    DN(Ds6,14,0x00C),
    DN(___,0,0x00C),
    DN(___,0,0x00C),
    DN(___,0,0x00C),
    DN(___,0,0x00C),
    DN(___,0,0x00C),
    DN(___,0,0x00C),
    DN(C_6,14,0x00C),
    DN(___,0,0x00C),
    DN(___,0,0x00C),
    DN(___,0,0x00C),
    DN(___,0,0x00C),
    DN(___,0,0x00C),
    DN(___,0,0x00C),
    DN(___,0,0x00C),
    DN(___,0,0x00C),
    DN(___,0,0x00C),
    DN(___,0,0x00C),
    DN(___,0,0x00C),
    DN(___,0,0x00C),
    DN(___,0,0x00C),
    DN(___,0,0x00C),
    DN(___,0,0x00C),
    DN(G_5,14,0x00C),
    DN(___,0,0x00C),
    DN(___,0,0x00C),
    DN(___,0,0x00C),
    DN(___,0,0x00C),
    DN(___,0,0x00C),
    DN(___,0,0x00C),
    DN(___,0,0x00C),
    DN(Gs5,14,0x00C),
    DN(___,0,0x00C),
    DN(___,0,0x00C),
    DN(___,0,0x00C),
    DN(___,0,0x00C),
    DN(___,0,0x00C),
    DN(___,0,0x00C),
    DN(___,0,0x00C),
    DN(___,0,0x00C),
    DN(___,0,0x00C),
    DN(___,0,0x00C),
    DN(___,0,0x00C),
    DN(___,0,0x00C),
    DN(___,0,0x00C),
    DN(___,0,0x00C),
    DN(___,0,0x00C),
    DN(Gs6,14,0x00C),
    DN(___,0,0x00C),
    DN(___,0,0x00C),
    DN(___,0,0x00C),
    DN(___,0,0x00C),
    DN(___,0,0x00C),
    DN(___,0,0x00C),
    DN(___,0,0x00C),
    DN(___,0,0x00C),
    DN(___,0,0x00C),
    DN(___,0,0x00C),
    DN(___,0,0x00C),
    DN(___,0,0x00C),
    DN(___,0,0x00C),
    DN(___,0,0x00C),
    DN(___,0,0x00C),
};
static const unsigned char P11[] = {
    DN(C_8,2,0xF06),
    DN(___,0,0x000),
    DN(C_8,2,0x000),
    DN(C_8,2,0x000),
    DN(C_8,2,0xF03),
    DN(___,0,0x000),
    DN(___,0,0x000),
    DN(___,0,0x000),
    DN(C_7,1,0xF06),
    DN(___,0,0x000),
    DN(C_8,2,0x000),
    DN(___,0,0x000),
    DN(C_8,2,0xF03),
    DN(___,0,0x000),
    DN(___,0,0x000),
    DN(___,0,0x000),
    DN(C_8,2,0x000),
    DN(___,0,0x000),
    DN(C_8,2,0x000),
    DN(___,0,0x000),
    DN(C_8,2,0x000),
    DN(___,0,0x000),
    DN(___,0,0x000),
    DN(___,0,0x000),
    DN(C_7,1,0x000),
    DN(___,0,0x000),
    DN(___,0,0x000),
    DN(___,0,0x000),
    DN(C_8,4,0x000),
    DN(___,0,0x000),
    DN(___,0,0x000),
    DN(___,0,0x000),
    DN(C_8,2,0xF06),
    DN(___,0,0x000),
    DN(C_8,2,0x000),
    DN(C_8,2,0x000),
    DN(C_8,2,0xF03),
    DN(___,0,0x000),
    DN(___,0,0x000),
    DN(___,0,0x000),
    DN(C_7,1,0xF06),
    DN(___,0,0x000),
    DN(C_8,2,0x000),
    DN(___,0,0x000),
    DN(C_8,2,0xF03),
    DN(___,0,0x000),
    DN(___,0,0x000),
    DN(___,0,0x000),
    DN(C_8,2,0x000),
    DN(___,0,0x000),
    DN(C_8,2,0x000),
    DN(___,0,0x000),
    DN(C_8,2,0x000),
    DN(___,0,0x000),
    DN(___,0,0x000),
    DN(___,0,0x000),
    DN(C_7,1,0x000),
    DN(___,0,0x000),
    DN(___,0,0x000),
    DN(___,0,0x000),
    DN(C_7,1,0x000),
    DN(___,0,0x000),
    DN(C_7,1,0x000),
    DN(___,0,0x000),
};
static const unsigned char P12[] = {
    DN(G_6,3,0xF06),
    DN(___,0,0x000),
    DN(___,0,0x000),
    DN(___,0,0x000),
    DN(___,0,0xF03),
    DN(___,0,0x000),
    DN(___,0,0x000),
    DN(___,0,0x000),
    DN(C_7,1,0xF06),
    DN(___,0,0x000),
    DN(___,0,0x000),
    DN(___,0,0x000),
    DN(___,0,0xF03),
    DN(___,0,0x000),
    DN(___,0,0x000),
    DN(___,0,0x000),
    DN(___,0,0x000),
    DN(___,0,0x000),
    DN(___,0,0x000),
    DN(___,0,0x000),
    DN(___,0,0x000),
    DN(___,0,0x000),
    DN(___,0,0x000),
    DN(___,0,0x000),
    DN(C_7,1,0x000),
    DN(___,0,0x000),
    DN(___,0,0x000),
    DN(___,0,0x000),
    DN(___,0,0x000),
    DN(___,0,0x000),
    DN(___,0,0x000),
    DN(___,0,0x000),
    DN(___,0,0xF06),
    DN(___,0,0x000),
    DN(___,0,0x000),
    DN(___,0,0x000),
    DN(___,0,0xF03),
    DN(___,0,0x000),
    DN(___,0,0x000),
    DN(___,0,0x000),
    DN(C_7,1,0xF06),
    DN(___,0,0x000),
    DN(___,0,0x000),
    DN(___,0,0x000),
    DN(___,0,0xF03),
    DN(___,0,0x000),
    DN(___,0,0x000),
    DN(___,0,0x000),
    DN(___,0,0x000),
    DN(___,0,0x000),
    DN(___,0,0x000),
    DN(___,0,0x000),
    DN(___,0,0x000),
    DN(___,0,0x000),
    DN(___,0,0x000),
    DN(___,0,0x000),
    DN(C_7,1,0x000),
    DN(___,0,0x000),
    DN(___,0,0x000),
    DN(___,0,0x000),
    DN(C_7,1,0x000),
    DN(___,0,0x000),
    DN(C_7,1,0x000),
    DN(___,0,0x000),
};
static const unsigned char P13[] = {
    DN(G_3,3,0x280),
    DN(C_3,9,0x000),
    DN(___,0,0x000),
    DN(___,0,0x000),
    DN(G_3,9,0x000),
    DN(___,0,0x000),
    DN(___,0,0x000),
    DN(___,0,0x000),
    DN(C_5,3,0x2FF),
    DN(C_4,9,0x000),
    DN(___,0,0x000),
    DN(___,0,0x000),
    DN(G_3,9,0x000),
    DN(___,0,0x000),
    DN(___,0,0x000),
    DN(___,0,0x000),
    DN(G_3,3,0x280),
    DN(C_3,9,0x000),
    DN(___,0,0x000),
    DN(___,0,0x000),
    DN(___,0,0x000),
    DN(___,0,0x000),
    DN(___,0,0x000),
    DN(___,0,0x000),
    DN(C_5,3,0x2FF),
    DN(C_4,9,0x000),
    DN(___,0,0x000),
    DN(___,0,0x000),
    DN(___,0,0x000),
    DN(___,0,0x000),
    DN(___,0,0x000),
    DN(___,0,0x000),
    DN(G_3,3,0x280),
    DN(D_3,9,0x000),
    DN(___,0,0x000),
    DN(___,0,0x000),
    DN(G_3,9,0x000),
    DN(___,0,0x000),
    DN(___,0,0x000),
    DN(___,0,0x000),
    DN(C_5,3,0x2FF),
    DN(D_4,9,0x000),
    DN(___,0,0x000),
    DN(___,0,0x000),
    DN(G_3,9,0x000),
    DN(___,0,0x000),
    DN(___,0,0x000),
    DN(___,0,0x000),
    DN(G_3,3,0x280),
    DN(D_3,9,0x000),
    DN(___,0,0x000),
    DN(___,0,0x000),
    DN(___,0,0x000),
    DN(___,0,0x000),
    DN(___,0,0x000),
    DN(___,0,0x000),
    DN(C_5,3,0x2FF),
    DN(D_4,9,0x000),
    DN(___,0,0x000),
    DN(___,0,0x000),
    DN(___,0,0x000),
    DN(___,0,0x000),
    DN(___,0,0x000),
    DN(___,0,0x000),
};
static const unsigned char P14[] = {
    DN(G_3,3,0x280),
    DN(Ds3,9,0x000),
    DN(___,0,0x000),
    DN(___,0,0x000),
    DN(As3,9,0x000),
    DN(___,0,0x000),
    DN(___,0,0x000),
    DN(___,0,0x000),
    DN(C_5,3,0x2FF),
    DN(Ds4,9,0x000),
    DN(___,0,0x000),
    DN(___,0,0x000),
    DN(As3,9,0x000),
    DN(___,0,0x000),
    DN(___,0,0x000),
    DN(___,0,0x000),
    DN(G_3,3,0x280),
    DN(Ds3,9,0x000),
    DN(___,0,0x000),
    DN(___,0,0x000),
    DN(___,0,0x000),
    DN(___,0,0x000),
    DN(___,0,0x000),
    DN(___,0,0x000),
    DN(C_5,3,0x2FF),
    DN(Ds4,9,0x000),
    DN(___,0,0x000),
    DN(___,0,0x000),
    DN(___,0,0x000),
    DN(___,0,0x000),
    DN(___,0,0x000),
    DN(___,0,0x000),
    DN(G_3,3,0x280),
    DN(D_3,9,0x000),
    DN(___,0,0x000),
    DN(___,0,0x000),
    DN(Gs3,9,0x000),
    DN(___,0,0x000),
    DN(___,0,0x000),
    DN(___,0,0x000),
    DN(C_5,3,0x2FF),
    DN(D_4,9,0x000),
    DN(___,0,0x000),
    DN(___,0,0x000),
    DN(Gs3,9,0x000),
    DN(___,0,0x000),
    DN(___,0,0x000),
    DN(___,0,0x000),
    DN(G_3,3,0x280),
    DN(D_3,9,0x000),
    DN(___,0,0x000),
    DN(___,0,0x000),
    DN(___,0,0x000),
    DN(___,0,0x000),
    DN(___,0,0x000),
    DN(___,0,0x000),
    DN(C_5,3,0x2FF),
    DN(D_4,9,0x000),
    DN(___,0,0x000),
    DN(___,0,0x000),
    DN(___,0,0x000),
    DN(___,0,0x000),
    DN(___,0,0x000),
    DN(___,0,0x000),
};
static const unsigned char P15[] = {
    DN(G_3,3,0x280),
    DN(C_3,9,0x000),
    DN(___,0,0x000),
    DN(___,0,0x000),
    DN(G_3,9,0x000),
    DN(___,0,0x000),
    DN(___,0,0x000),
    DN(___,0,0x000),
    DN(C_5,3,0x2FF),
    DN(C_4,9,0x000),
    DN(___,0,0x000),
    DN(___,0,0x000),
    DN(G_3,9,0x000),
    DN(___,0,0x000),
    DN(___,0,0x000),
    DN(___,0,0x000),
    DN(G_3,3,0x280),
    DN(C_3,9,0x000),
    DN(___,0,0x000),
    DN(___,0,0x000),
    DN(___,0,0x000),
    DN(___,0,0x000),
    DN(___,0,0x000),
    DN(___,0,0x000),
    DN(C_5,3,0x2FF),
    DN(C_4,9,0x000),
    DN(___,0,0x000),
    DN(___,0,0x000),
    DN(___,0,0x000),
    DN(___,0,0x000),
    DN(___,0,0x000),
    DN(___,0,0x000),
    DN(G_3,3,0x280),
    DN(Ds3,9,0x000),
    DN(___,0,0x000),
    DN(___,0,0x000),
    DN(As3,9,0x000),
    DN(___,0,0x000),
    DN(___,0,0x000),
    DN(___,0,0x000),
    DN(C_5,3,0x2FF),
    DN(Ds4,9,0x000),
    DN(___,0,0x000),
    DN(___,0,0x000),
    DN(As3,9,0x000),
    DN(___,0,0x000),
    DN(___,0,0x000),
    DN(___,0,0x000),
    DN(G_3,3,0x280),
    DN(Ds3,9,0x000),
    DN(___,0,0x000),
    DN(___,0,0x000),
    DN(___,0,0x000),
    DN(___,0,0x000),
    DN(___,0,0x000),
    DN(___,0,0x000),
    DN(C_5,3,0x2FF),
    DN(Ds4,9,0x000),
    DN(___,0,0x000),
    DN(___,0,0x000),
    DN(___,0,0x000),
    DN(___,0,0x000),
    DN(___,0,0x000),
    DN(___,0,0x000),
};
static const unsigned char P16[] = {
    DN(G_3,3,0x280),
    DN(C_3,9,0x000),
    DN(___,0,0x000),
    DN(___,0,0x000),
    DN(G_3,9,0x000),
    DN(___,0,0x000),
    DN(___,0,0x000),
    DN(___,0,0x000),
    DN(C_5,3,0x2FF),
    DN(C_4,9,0x000),
    DN(___,0,0x000),
    DN(___,0,0x000),
    DN(G_3,9,0x000),
    DN(___,0,0x000),
    DN(___,0,0x000),
    DN(___,0,0x000),
    DN(G_3,3,0x280),
    DN(C_3,9,0x000),
    DN(___,0,0x000),
    DN(___,0,0x000),
    DN(___,0,0x000),
    DN(___,0,0x000),
    DN(___,0,0x000),
    DN(___,0,0x000),
    DN(C_5,3,0x2FF),
    DN(C_4,9,0x000),
    DN(___,0,0x000),
    DN(___,0,0x000),
    DN(___,0,0x000),
    DN(___,0,0x000),
    DN(___,0,0x000),
    DN(___,0,0x000),
    DN(G_3,3,0x280),
    DN(C_3,9,0x000),
    DN(___,0,0x000),
    DN(___,0,0x000),
    DN(G_3,9,0x000),
    DN(___,0,0x000),
    DN(___,0,0x000),
    DN(___,0,0x000),
    DN(C_5,3,0x2FF),
    DN(C_4,9,0x000),
    DN(___,0,0x000),
    DN(___,0,0x000),
    DN(G_3,9,0x000),
    DN(___,0,0x000),
    DN(___,0,0x000),
    DN(___,0,0x000),
    DN(G_3,3,0x280),
    DN(C_3,9,0x000),
    DN(___,0,0x000),
    DN(___,0,0x000),
    DN(___,0,0x000),
    DN(___,0,0x000),
    DN(___,0,0x000),
    DN(___,0,0x000),
    DN(C_5,3,0x2FF),
    DN(C_4,9,0x000),
    DN(___,0,0x000),
    DN(___,0,0x000),
    DN(___,0,0x000),
    DN(___,0,0x000),
    DN(___,0,0x000),
    DN(___,0,0x000),
};
static const unsigned char P17[] = {
    DN(G_3,3,0x280),
    DN(C_3,9,0x000),
    DN(___,0,0x000),
    DN(___,0,0x000),
    DN(Gs3,9,0x000),
    DN(___,0,0x000),
    DN(___,0,0x000),
    DN(___,0,0x000),
    DN(C_5,3,0x2FF),
    DN(C_4,9,0x000),
    DN(___,0,0x000),
    DN(___,0,0x000),
    DN(Gs3,9,0x000),
    DN(___,0,0x000),
    DN(___,0,0x000),
    DN(___,0,0x000),
    DN(G_3,3,0x280),
    DN(C_3,9,0x000),
    DN(___,0,0x000),
    DN(___,0,0x000),
    DN(___,0,0x000),
    DN(___,0,0x000),
    DN(___,0,0x000),
    DN(___,0,0x000),
    DN(C_5,3,0x2FF),
    DN(C_4,9,0x000),
    DN(___,0,0x000),
    DN(___,0,0x000),
    DN(___,0,0x000),
    DN(___,0,0x000),
    DN(___,0,0x000),
    DN(___,0,0x000),
    DN(G_3,3,0x280),
    DN(D_3,9,0x000),
    DN(___,0,0x000),
    DN(___,0,0x000),
    DN(Gs3,9,0x000),
    DN(___,0,0x000),
    DN(___,0,0x000),
    DN(___,0,0x000),
    DN(C_5,3,0x2FF),
    DN(D_4,9,0x000),
    DN(___,0,0x000),
    DN(___,0,0x000),
    DN(Gs3,9,0x000),
    DN(___,0,0x000),
    DN(___,0,0x000),
    DN(___,0,0x000),
    DN(G_3,3,0x280),
    DN(D_3,9,0x000),
    DN(___,0,0x000),
    DN(___,0,0x000),
    DN(___,0,0x000),
    DN(___,0,0x000),
    DN(___,0,0x000),
    DN(___,0,0x000),
    DN(C_5,3,0x2FF),
    DN(D_4,9,0x000),
    DN(___,0,0x000),
    DN(___,0,0x000),
    DN(C_5,3,0x2FF),
    DN(D_4,9,0x000),
    DN(C_5,3,0x2FF),
    DN(D_4,9,0x000),
};
static const unsigned char P18[] = {
    DN(G_3,3,0x280),
    DN(C_3,9,0x000),
    DN(___,0,0x000),
    DN(___,0,0x000),
    DN(Gs3,9,0x000),
    DN(___,0,0x000),
    DN(___,0,0x000),
    DN(___,0,0x000),
    DN(C_5,3,0x2FF),
    DN(C_4,9,0x000),
    DN(___,0,0x000),
    DN(___,0,0x000),
    DN(Gs3,9,0x000),
    DN(___,0,0x000),
    DN(___,0,0x000),
    DN(___,0,0x000),
    DN(G_3,3,0x280),
    DN(C_3,9,0x000),
    DN(___,0,0x000),
    DN(___,0,0x000),
    DN(___,0,0x000),
    DN(___,0,0x000),
    DN(___,0,0x000),
    DN(___,0,0x000),
    DN(C_5,3,0x2FF),
    DN(C_4,9,0x000),
    DN(___,0,0x000),
    DN(___,0,0x000),
    DN(___,0,0x000),
    DN(___,0,0x000),
    DN(___,0,0x000),
    DN(___,0,0x000),
    DN(G_3,3,0x280),
    DN(D_3,9,0x000),
    DN(___,0,0x000),
    DN(___,0,0x000),
    DN(Gs3,9,0x000),
    DN(___,0,0x000),
    DN(___,0,0x000),
    DN(___,0,0x000),
    DN(C_5,3,0x2FF),
    DN(D_4,9,0x000),
    DN(___,0,0x000),
    DN(___,0,0x000),
    DN(Gs3,9,0x000),
    DN(___,0,0x000),
    DN(___,0,0x000),
    DN(___,0,0x000),
    DN(G_3,3,0x280),
    DN(D_3,9,0x000),
    DN(___,0,0x000),
    DN(___,0,0x000),
    DN(___,0,0x000),
    DN(___,0,0x000),
    DN(___,0,0x000),
    DN(___,0,0x000),
    DN(C_5,3,0x2FF),
    DN(D_4,9,0x000),
    DN(___,0,0x000),
    DN(___,0,0x000),
    DN(___,0,0x000),
    DN(___,0,0x000),
    DN(___,0,0x000),
    DN(___,0,0x000),
};
static const unsigned char P19[] = {
    DN(G_3,3,0x280),
    DN(C_3,9,0x000),
    DN(___,0,0x000),
    DN(___,0,0x000),
    DN(___,0,0x000),
    DN(___,0,0x000),
    DN(___,0,0x000),
    DN(___,0,0x000),
    DN(C_5,3,0x2FF),
    DN(C_3,9,0x000),
    DN(___,0,0x000),
    DN(___,0,0x000),
    DN(___,0,0x000),
    DN(___,0,0x000),
    DN(___,0,0x000),
    DN(___,0,0x000),
    DN(G_3,3,0x280),
    DN(C_3,9,0x000),
    DN(___,0,0x000),
    DN(___,0,0x000),
    DN(___,0,0x000),
    DN(___,0,0x000),
    DN(___,0,0x000),
    DN(___,0,0x000),
    DN(C_5,3,0x2FF),
    DN(C_3,9,0x000),
    DN(___,0,0x000),
    DN(___,0,0x000),
    DN(___,0,0x000),
    DN(___,0,0x000),
    DN(___,0,0x000),
    DN(___,0,0x000),
    DN(G_3,3,0x280),
    DN(C_4,9,0x000),
    DN(___,0,0x000),
    DN(___,0,0x000),
    DN(___,0,0x000),
    DN(___,0,0x000),
    DN(___,0,0x000),
    DN(___,0,0x000),
    DN(C_5,3,0x2FF),
    DN(C_4,9,0x000),
    DN(___,0,0x000),
    DN(___,0,0x000),
    DN(___,0,0x000),
    DN(___,0,0x000),
    DN(___,0,0x000),
    DN(___,0,0x000),
    DN(G_3,3,0x280),
    DN(C_4,9,0x000),
    DN(___,0,0x000),
    DN(___,0,0x000),
    DN(___,0,0x000),
    DN(___,0,0x000),
    DN(___,0,0x000),
    DN(___,0,0x000),
    DN(C_5,3,0x2FF),
    DN(C_4,9,0x000),
    DN(___,0,0x000),
    DN(___,0,0x000),
    DN(C_5,3,0x2FF),
    DN(C_4,9,0x000),
    DN(C_5,3,0x2FF),
    DN(C_4,9,0x000),
};
static const unsigned char P20[] = {
    DN(G_3,3,0x280),
    DN(As3,9,0x000),
    DN(___,0,0x000),
    DN(___,0,0x000),
    DN(___,0,0x000),
    DN(___,0,0x000),
    DN(___,0,0x000),
    DN(___,0,0x000),
    DN(C_5,3,0x2FF),
    DN(As3,9,0x000),
    DN(___,0,0x000),
    DN(___,0,0x000),
    DN(___,0,0x000),
    DN(___,0,0x000),
    DN(___,0,0x000),
    DN(___,0,0x000),
    DN(G_3,3,0x280),
    DN(As3,9,0x000),
    DN(___,0,0x000),
    DN(___,0,0x000),
    DN(___,0,0x000),
    DN(___,0,0x000),
    DN(___,0,0x000),
    DN(___,0,0x000),
    DN(C_5,3,0x2FF),
    DN(As3,9,0x000),
    DN(___,0,0x000),
    DN(___,0,0x000),
    DN(___,0,0x000),
    DN(___,0,0x000),
    DN(___,0,0x000),
    DN(___,0,0x000),
    DN(G_3,3,0x280),
    DN(Gs3,9,0x000),
    DN(___,0,0x000),
    DN(___,0,0x000),
    DN(___,0,0x000),
    DN(___,0,0x000),
    DN(___,0,0x000),
    DN(___,0,0x000),
    DN(C_5,3,0x2FF),
    DN(Gs3,9,0x000),
    DN(___,0,0x000),
    DN(___,0,0x000),
    DN(___,0,0x000),
    DN(___,0,0x000),
    DN(___,0,0x000),
    DN(___,0,0x000),
    DN(G_3,3,0x280),
    DN(Gs3,9,0x000),
    DN(___,0,0x000),
    DN(___,0,0x000),
    DN(___,0,0x000),
    DN(___,0,0x000),
    DN(___,0,0x000),
    DN(___,0,0x000),
    DN(C_5,3,0x2FF),
    DN(Gs3,9,0x000),
    DN(___,0,0x000),
    DN(___,0,0x000),
    DN(C_5,3,0x2FF),
    DN(Gs3,9,0x000),
    DN(C_5,3,0x2FF),
    DN(Gs3,9,0x000),
};
static const unsigned char P21[] = {
    DN(G_3,3,0x280),
    DN(G_3,9,0x000),
    DN(___,0,0x000),
    DN(___,0,0x000),
    DN(___,0,0x000),
    DN(___,0,0x000),
    DN(___,0,0x000),
    DN(___,0,0x000),
    DN(C_5,3,0x2FF),
    DN(G_3,9,0x000),
    DN(___,0,0x000),
    DN(___,0,0x000),
    DN(___,0,0x000),
    DN(___,0,0x000),
    DN(___,0,0x000),
    DN(___,0,0x000),
    DN(G_3,3,0x280),
    DN(G_3,9,0x000),
    DN(___,0,0x000),
    DN(___,0,0x000),
    DN(___,0,0x000),
    DN(___,0,0x000),
    DN(___,0,0x000),
    DN(___,0,0x000),
    DN(C_5,3,0x2FF),
    DN(G_3,9,0x000),
    DN(___,0,0x000),
    DN(___,0,0x000),
    DN(___,0,0x000),
    DN(___,0,0x000),
    DN(___,0,0x000),
    DN(___,0,0x000),
    DN(G_3,3,0x280),
    DN(F_3,9,0x000),
    DN(___,0,0x000),
    DN(___,0,0x000),
    DN(___,0,0x000),
    DN(___,0,0x000),
    DN(___,0,0x000),
    DN(___,0,0x000),
    DN(C_5,3,0x2FF),
    DN(F_3,9,0x000),
    DN(___,0,0x000),
    DN(___,0,0x000),
    DN(___,0,0x000),
    DN(___,0,0x000),
    DN(___,0,0x000),
    DN(___,0,0x000),
    DN(G_3,3,0x280),
    DN(F_3,9,0x000),
    DN(___,0,0x000),
    DN(___,0,0x000),
    DN(___,0,0x000),
    DN(___,0,0x000),
    DN(___,0,0x000),
    DN(___,0,0x000),
    DN(C_5,3,0x2FF),
    DN(F_3,9,0x000),
    DN(___,0,0x000),
    DN(___,0,0x000),
    DN(C_5,3,0x2FF),
    DN(F_3,9,0x000),
    DN(C_5,3,0x2FF),
    DN(F_3,9,0x000),
};
static const unsigned char P22[] = {
    DN(G_3,3,0x280),
    DN(Ds3,9,0x000),
    DN(___,0,0x000),
    DN(___,0,0x000),
    DN(___,0,0x000),
    DN(___,0,0x000),
    DN(___,0,0x000),
    DN(___,0,0x000),
    DN(C_5,3,0x2FF),
    DN(Ds3,9,0x000),
    DN(___,0,0x000),
    DN(___,0,0x000),
    DN(___,0,0x000),
    DN(___,0,0x000),
    DN(___,0,0x000),
    DN(___,0,0x000),
    DN(G_3,3,0x280),
    DN(Ds3,9,0x000),
    DN(___,0,0x000),
    DN(___,0,0x000),
    DN(___,0,0x000),
    DN(___,0,0x000),
    DN(___,0,0x000),
    DN(___,0,0x000),
    DN(C_5,3,0x2FF),
    DN(Ds3,9,0x000),
    DN(___,0,0x000),
    DN(___,0,0x000),
    DN(___,0,0x000),
    DN(___,0,0x000),
    DN(___,0,0x000),
    DN(___,0,0x000),
    DN(G_3,3,0x280),
    DN(Cs3,9,0x000),
    DN(___,0,0x000),
    DN(___,0,0x000),
    DN(___,0,0x000),
    DN(___,0,0x000),
    DN(___,0,0x000),
    DN(___,0,0x000),
    DN(C_5,3,0x2FF),
    DN(Cs3,9,0x000),
    DN(___,0,0x000),
    DN(___,0,0x000),
    DN(___,0,0x000),
    DN(___,0,0x000),
    DN(___,0,0x000),
    DN(___,0,0x000),
    DN(G_3,3,0x280),
    DN(Cs3,9,0x000),
    DN(___,0,0x000),
    DN(___,0,0x000),
    DN(___,0,0x000),
    DN(___,0,0x000),
    DN(___,0,0x000),
    DN(___,0,0x000),
    DN(C_5,3,0x2FF),
    DN(Cs3,9,0x000),
    DN(___,0,0x000),
    DN(___,0,0x000),
    DN(C_5,3,0x2FF),
    DN(Cs3,9,0x000),
    DN(C_5,3,0x2FF),
    DN(Cs3,9,0x000),
};
static const unsigned char P23[] = {
    DN(G_6,1,0x058),
    DN(G_6,2,0x058),
    DN(G_6,3,0x058),
    DN(G_6,4,0x058),
    DN(G_6,5,0x058),
    DN(___,0,0x058),
    DN(G_6,6,0x058),
    DN(___,0,0x058),
    DN(G_6,7,0x058),
    DN(G_6,8,0x058),
    DN(G_6,9,0x058),
    DN(G_6,10,0x058),
    DN(G_6,11,0x058),
    DN(___,0,0x058),
    DN(G_6,12,0x058),
    DN(___,0,0x058),
    DN(G_6,13,0x058),
    DN(___,0,0x058),
    DN(G_6,12,0x058),
    DN(___,0,0x058),
    DN(G_6,11,0x058),
    DN(___,0,0x058),
    DN(G_6,10,0x058),
    DN(___,0,0x058),
    DN(G_6,9,0x058),
    DN(___,0,0x058),
    DN(G_6,8,0x058),
    DN(___,0,0x058),
    DN(G_6,7,0x058),
    DN(___,0,0x058),
    DN(G_6,6,0x058),
    DN(___,0,0x058),
    DN(C_7,5,0x037),
    DN(C_7,4,0x037),
    DN(C_7,3,0x037),
    DN(C_7,2,0x037),
    DN(C_7,1,0x037),
    DN(___,0,0x037),
    DN(C_7,2,0x037),
    DN(___,0,0x037),
    DN(C_7,3,0x037),
    DN(C_7,4,0x037),
    DN(C_7,5,0x037),
    DN(C_7,6,0x037),
    DN(C_7,7,0x037),
    DN(___,0,0x037),
    DN(C_7,8,0x037),
    DN(___,0,0x037),
    DN(C_7,9,0x037),
    DN(___,0,0x037),
    DN(C_7,10,0x037),
    DN(___,0,0x037),
    DN(C_7,11,0x037),
    DN(___,0,0x037),
    DN(C_7,12,0x037),
    DN(___,0,0x037),
    DN(C_7,13,0x037),
    DN(___,0,0x037),
    DN(C_7,12,0x037),
    DN(___,0,0x037),
    DN(C_7,11,0x037),
    DN(___,0,0x037),
    DN(C_7,10,0x037),
    DN(___,0,0x037),
};
static const unsigned char P27[] = {
    DN(G_3,3,0x280),
    DN(G_3,9,0x000),
    DN(Gs3,9,0x000),
    DN(___,0,0x000),
    DN(G_3,9,0x000),
    DN(___,0,0x000),
    DN(___,0,0x000),
    DN(___,0,0x000),
    DN(C_5,3,0x2FF),
    DN(Ds3,9,0x000),
    DN(___,0,0x000),
    DN(___,0,0x000),
    DN(___,0,0x000),
    DN(___,0,0x000),
    DN(___,0,0x000),
    DN(___,0,0x000),
    DN(G_3,3,0x280),
    DN(Ds3,9,0x000),
    DN(___,0,0x000),
    DN(___,0,0x000),
    DN(___,0,0x000),
    DN(___,0,0x000),
    DN(___,0,0x000),
    DN(___,0,0x000),
    DN(C_5,3,0x2FF),
    DN(Ds3,9,0x000),
    DN(___,0,0x000),
    DN(___,0,0x000),
    DN(___,0,0x000),
    DN(___,0,0x000),
    DN(___,0,0x000),
    DN(___,0,0x000),
    DN(G_3,3,0x280),
    DN(F_3,9,0x000),
    DN(G_3,9,0x000),
    DN(___,0,0x000),
    DN(F_3,9,0x000),
    DN(___,0,0x000),
    DN(___,0,0x000),
    DN(___,0,0x000),
    DN(C_5,3,0x2FF),
    DN(D_3,9,0x000),
    DN(___,0,0x000),
    DN(___,0,0x000),
    DN(___,0,0x000),
    DN(___,0,0x000),
    DN(___,0,0x000),
    DN(___,0,0x000),
    DN(G_3,3,0x280),
    DN(D_3,9,0x000),
    DN(___,0,0x000),
    DN(___,0,0x000),
    DN(___,0,0x000),
    DN(___,0,0x000),
    DN(___,0,0x000),
    DN(___,0,0x000),
    DN(C_5,3,0x2FF),
    DN(F_3,9,0x000),
    DN(___,0,0x000),
    DN(___,0,0x000),
    DN(___,0,0x000),
    DN(___,0,0x000),
    DN(___,0,0x000),
    DN(___,0,0x000),
};
static const unsigned char P28[] = {
    DN(G_3,3,0x280),
    DN(Ds3,9,0x000),
    DN(___,0,0x000),
    DN(___,0,0x000),
    DN(___,0,0x000),
    DN(___,0,0x000),
    DN(___,0,0x000),
    DN(___,0,0x000),
    DN(C_5,3,0x2FF),
    DN(C_3,9,0x000),
    DN(___,0,0x000),
    DN(___,0,0x000),
    DN(___,0,0x000),
    DN(___,0,0x000),
    DN(___,0,0x000),
    DN(___,0,0x000),
    DN(G_3,3,0x280),
    DN(C_3,9,0x000),
    DN(___,0,0x000),
    DN(___,0,0x000),
    DN(___,0,0x000),
    DN(___,0,0x000),
    DN(___,0,0x000),
    DN(___,0,0x000),
    DN(C_5,3,0x2FF),
    DN(G_3,9,0x000),
    DN(___,0,0x000),
    DN(___,0,0x000),
    DN(___,0,0x000),
    DN(___,0,0x000),
    DN(___,0,0x000),
    DN(___,0,0x000),
    DN(G_3,3,0x280),
    DN(Gs3,9,0x000),
    DN(___,0,0x000),
    DN(___,0,0x000),
    DN(___,0,0x000),
    DN(___,0,0x000),
    DN(___,0,0x000),
    DN(___,0,0x000),
    DN(C_5,3,0x2FF),
    DN(Gs3,9,0x000),
    DN(___,0,0x000),
    DN(___,0,0x000),
    DN(___,0,0x000),
    DN(___,0,0x000),
    DN(___,0,0x000),
    DN(___,0,0x000),
    DN(G_3,3,0x280),
    DN(Gs3,9,0x000),
    DN(___,0,0x000),
    DN(___,0,0x000),
    DN(___,0,0x000),
    DN(___,0,0x000),
    DN(___,0,0x000),
    DN(___,0,0x000),
    DN(C_5,3,0x2FF),
    DN(Gs3,9,0x000),
    DN(___,0,0x000),
    DN(___,0,0x000),
    DN(___,0,0x000),
    DN(___,0,0x000),
    DN(___,0,0x000),
    DN(___,0,0x000),
};
static const unsigned char P24[] = {
    DN(As6,9,0x047),
    DN(As6,8,0x047),
    DN(As6,7,0x047),
    DN(As6,6,0x047),
    DN(As6,5,0x047),
    DN(___,0,0x047),
    DN(As6,4,0x047),
    DN(___,0,0x047),
    DN(As6,3,0x047),
    DN(As6,2,0x047),
    DN(As6,1,0x047),
    DN(As6,2,0x047),
    DN(As6,3,0x047),
    DN(___,0,0x047),
    DN(As6,4,0x047),
    DN(___,0,0x047),
    DN(As6,5,0x047),
    DN(___,0,0x047),
    DN(As6,6,0x047),
    DN(___,0,0x047),
    DN(As6,7,0x047),
    DN(___,0,0x047),
    DN(As6,8,0x047),
    DN(___,0,0x047),
    DN(As6,9,0x047),
    DN(___,0,0x047),
    DN(As6,10,0x047),
    DN(___,0,0x047),
    DN(As6,11,0x047),
    DN(___,0,0x047),
    DN(As6,12,0x047),
    DN(___,0,0x047),
    DN(Gs6,13,0x047),
    DN(Gs6,12,0x047),
    DN(Gs6,11,0x047),
    DN(Gs6,10,0x047),
    DN(Gs6,9,0x047),
    DN(___,0,0x047),
    DN(Gs6,8,0x047),
    DN(___,0,0x047),
    DN(Gs6,7,0x047),
    DN(Gs6,6,0x047),
    DN(Gs6,5,0x047),
    DN(Gs6,4,0x047),
    DN(Gs6,3,0x047),
    DN(___,0,0x047),
    DN(Gs6,2,0x047),
    DN(___,0,0x047),
    DN(Gs6,1,0x047),
    DN(___,0,0x047),
    DN(Gs6,2,0x047),
    DN(___,0,0x047),
    DN(Gs6,3,0x047),
    DN(___,0,0x047),
    DN(Gs6,4,0x047),
    DN(___,0,0x047),
    DN(Gs6,5,0x047),
    DN(___,0,0x047),
    DN(Gs6,6,0x047),
    DN(___,0,0x047),
    DN(Gs6,7,0x047),
    DN(___,0,0x047),
    DN(Gs6,8,0x047),
    DN(___,0,0x047),
};
static const unsigned char P25[] = {
    DN(G_6,9,0x037),
    DN(G_6,10,0x037),
    DN(G_6,11,0x037),
    DN(G_6,12,0x037),
    DN(G_6,13,0x037),
    DN(___,0,0x037),
    DN(G_6,12,0x037),
    DN(___,0,0x037),
    DN(G_6,11,0x037),
    DN(G_6,10,0x037),
    DN(G_6,9,0x037),
    DN(G_6,8,0x037),
    DN(G_6,7,0x037),
    DN(___,0,0x037),
    DN(G_6,6,0x037),
    DN(___,0,0x037),
    DN(G_6,5,0x037),
    DN(___,0,0x037),
    DN(G_6,4,0x037),
    DN(___,0,0x037),
    DN(G_6,3,0x037),
    DN(___,0,0x037),
    DN(G_6,2,0x037),
    DN(___,0,0x037),
    DN(G_6,1,0x037),
    DN(___,0,0x037),
    DN(G_6,2,0x037),
    DN(___,0,0x037),
    DN(G_6,3,0x037),
    DN(___,0,0x037),
    DN(G_6,4,0x037),
    DN(___,0,0x037),
    DN(F_6,5,0x037),
    DN(F_6,6,0x037),
    DN(F_6,7,0x037),
    DN(F_6,8,0x037),
    DN(F_6,9,0x037),
    DN(___,0,0x037),
    DN(F_6,10,0x037),
    DN(___,0,0x037),
    DN(F_6,11,0x037),
    DN(F_6,12,0x037),
    DN(F_6,13,0x037),
    DN(F_6,12,0x037),
    DN(F_6,11,0x037),
    DN(___,0,0x037),
    DN(F_6,10,0x037),
    DN(___,0,0x037),
    DN(F_6,9,0x037),
    DN(___,0,0x037),
    DN(F_6,8,0x037),
    DN(___,0,0x037),
    DN(F_6,7,0x037),
    DN(___,0,0x037),
    DN(F_6,6,0x037),
    DN(___,0,0x037),
    DN(F_6,5,0x037),
    DN(___,0,0x037),
    DN(F_6,4,0x037),
    DN(___,0,0x037),
    DN(F_6,3,0x037),
    DN(___,0,0x037),
    DN(F_6,2,0x037),
    DN(___,0,0x037),
};
static const unsigned char P26[] = {
    DN(Ds6,1,0x047),
    DN(Ds6,2,0x047),
    DN(Ds6,3,0x047),
    DN(Ds6,4,0x047),
    DN(Ds6,5,0x047),
    DN(___,0,0x047),
    DN(Ds6,6,0x047),
    DN(___,0,0x047),
    DN(Ds6,7,0x047),
    DN(Ds6,8,0x047),
    DN(Ds6,9,0x047),
    DN(Ds6,10,0x047),
    DN(Ds6,11,0x047),
    DN(___,0,0x047),
    DN(Ds6,12,0x047),
    DN(___,0,0x047),
    DN(Ds6,13,0x047),
    DN(___,0,0x047),
    DN(Ds6,12,0x047),
    DN(___,0,0x047),
    DN(Ds6,11,0x047),
    DN(___,0,0x047),
    DN(Ds6,10,0x047),
    DN(___,0,0x047),
    DN(Ds6,9,0x047),
    DN(___,0,0x047),
    DN(Ds6,8,0x047),
    DN(___,0,0x047),
    DN(Ds6,7,0x047),
    DN(___,0,0x047),
    DN(Ds6,6,0x047),
    DN(___,0,0x047),
    DN(Cs6,5,0x047),
    DN(Cs6,4,0x047),
    DN(Cs6,3,0x047),
    DN(Cs6,2,0x047),
    DN(Cs6,1,0x047),
    DN(___,0,0x047),
    DN(Cs6,2,0x047),
    DN(___,0,0x047),
    DN(Cs6,3,0x047),
    DN(Cs6,4,0x047),
    DN(Cs6,5,0x047),
    DN(Cs6,6,0x047),
    DN(Cs6,7,0x047),
    DN(___,0,0x047),
    DN(Cs6,8,0x047),
    DN(___,0,0x047),
    DN(Cs6,9,0x047),
    DN(___,0,0x047),
    DN(Cs6,10,0x047),
    DN(___,0,0x047),
    DN(Cs6,11,0x047),
    DN(___,0,0x047),
    DN(Cs6,12,0x047),
    DN(___,0,0x047),
    DN(Cs6,13,0x047),
    DN(___,0,0x047),
    DN(Cs6,12,0x047),
    DN(___,0,0x047),
    DN(Cs6,11,0x047),
    DN(___,0,0x047),
    DN(Cs6,10,0x047),
    DN(___,0,0x047),
};
static const unsigned char P30[] = {
    DN(G_6,3,0xF06),
    DN(___,0,0x000),
    DN(___,0,0x000),
    DN(___,0,0x000),
    DN(C_8,2,0xF03),
    DN(___,0,0x000),
    DN(___,0,0x000),
    DN(___,0,0x000),
    DN(C_7,1,0xF06),
    DN(___,0,0x000),
    DN(C_8,2,0x000),
    DN(___,0,0x000),
    DN(C_8,2,0xF03),
    DN(___,0,0x000),
    DN(___,0,0x000),
    DN(___,0,0x000),
    DN(C_8,2,0x000),
    DN(___,0,0x000),
    DN(C_8,2,0x000),
    DN(___,0,0x000),
    DN(C_8,2,0x000),
    DN(___,0,0x000),
    DN(___,0,0x000),
    DN(___,0,0x000),
    DN(C_7,1,0x000),
    DN(___,0,0x000),
    DN(___,0,0x000),
    DN(___,0,0x000),
    DN(C_8,4,0x000),
    DN(___,0,0x000),
    DN(___,0,0x000),
    DN(___,0,0x000),
    DN(C_8,2,0xF06),
    DN(___,0,0x000),
    DN(C_8,2,0x000),
    DN(C_8,2,0x000),
    DN(C_8,2,0xF03),
    DN(___,0,0x000),
    DN(___,0,0x000),
    DN(___,0,0x000),
    DN(C_7,1,0xF06),
    DN(___,0,0x000),
    DN(C_8,2,0x000),
    DN(___,0,0x000),
    DN(C_8,2,0xF03),
    DN(___,0,0x000),
    DN(___,0,0x000),
    DN(___,0,0x000),
    DN(C_8,2,0x000),
    DN(___,0,0x000),
    DN(C_8,2,0x000),
    DN(___,0,0x000),
    DN(C_8,2,0x000),
    DN(___,0,0x000),
    DN(___,0,0x000),
    DN(___,0,0x000),
    DN(C_7,1,0x000),
    DN(___,0,0x000),
    DN(___,0,0x000),
    DN(___,0,0x000),
    DN(C_8,4,0x000),
    DN(___,0,0x000),
    DN(___,0,0x000),
    DN(___,0,0x000),
};
static const unsigned char P31[] = {
    DN(___,0,0xE00),
    DN(___,0,0x000),
    DN(C_7,7,0x481),
    DN(___,0,0xE00),
    DN(C_7,5,0x481),
    DN(___,0,0x481),
    DN(C_7,4,0x481),
    DN(___,0,0x481),
    DN(C_7,3,0x481),
    DN(C_7,2,0x481),
    DN(D_7,1,0x481),
    DN(D_7,2,0x481),
    DN(Ds7,3,0x481),
    DN(___,0,0x481),
    DN(D_7,4,0x481),
    DN(___,0,0x481),
    DN(___,0,0xE00),
    DN(___,0,0x000),
    DN(C_7,6,0x481),
    DN(___,0,0x481),
    DN(C_7,7,0x481),
    DN(___,0,0x481),
    DN(As6,8,0x481),
    DN(As6,8,0x481),
    DN(G_6,9,0x481),
    DN(___,0,0x481),
    DN(Ds6,10,0x481),
    DN(___,0,0x481),
    DN(C_6,11,0x481),
    DN(___,0,0x481),
    DN(Gs5,12,0x481),
    DN(___,0,0x481),
    DN(G_5,13,0x481),
    DN(Gs5,12,0x481),
    DN(G_5,11,0x481),
    DN(Gs5,10,0x481),
    DN(___,0,0xE00),
    DN(___,0,0x000),
    DN(As5,8,0x481),
    DN(___,0,0x481),
    DN(As5,7,0x481),
    DN(As5,6,0x481),
    DN(G_5,5,0x481),
    DN(As5,4,0x481),
    DN(D_6,3,0x481),
    DN(___,0,0x481),
    DN(Ds6,2,0x481),
    DN(___,0,0x481),
    DN(Ds6,1,0x481),
    DN(___,0,0x481),
    DN(F_6,2,0x481),
    DN(___,0,0x481),
    DN(Ds6,3,0x481),
    DN(___,0,0x481),
    DN(Ds6,4,0x481),
    DN(___,0,0x481),
    DN(F_6,5,0x481),
    DN(___,0,0x481),
    DN(E_6,6,0x481),
    DN(___,0,0x481),
    DN(E_6,7,0x481),
    DN(___,0,0x481),
    DN(E_6,8,0x481),
    DN(___,0,0x481),
};
static const unsigned char P32[] = {
    DN(G_6,9,0x481),
    DN(G_6,10,0x481),
    DN(C_7,11,0x481),
    DN(C_7,12,0x481),
    DN(G_6,13,0x481),
    DN(___,0,0x481),
    DN(G_6,12,0x481),
    DN(___,0,0x481),
    DN(As6,11,0x481),
    DN(As6,10,0x481),
    DN(As6,9,0x481),
    DN(As6,8,0x481),
    DN(C_7,7,0x481),
    DN(___,0,0x481),
    DN(C_7,6,0xE00),
    DN(___,0,0x000),
    DN(C_7,5,0x481),
    DN(Ds7,5,0x481),
    DN(Ds7,4,0x481),
    DN(___,0,0x481),
    DN(Ds7,3,0x481),
    DN(___,0,0x481),
    DN(D_7,2,0x481),
    DN(___,0,0x481),
    DN(C_7,1,0x481),
    DN(___,0,0x481),
    DN(G_6,2,0x481),
    DN(___,0,0x481),
    DN(C_7,3,0x481),
    DN(___,0,0x481),
    DN(G_7,4,0x481),
    DN(___,0,0x481),
    DN(C_8,5,0x481),
    DN(G_7,6,0x481),
    DN(C_8,7,0x481),
    DN(G_7,8,0x481),
    DN(Ds8,9,0x481),
    DN(___,0,0x481),
    DN(G_7,10,0x481),
    DN(___,0,0x481),
    DN(Ds8,11,0x481),
    DN(G_7,12,0x481),
    DN(Ds7,13,0x481),
    DN(G_6,12,0x481),
    DN(Ds7,11,0x481),
    DN(___,0,0x481),
    DN(G_6,10,0x481),
    DN(___,0,0x481),
    DN(Gs6,9,0x481),
    DN(___,0,0x481),
    DN(Gs6,8,0x481),
    DN(___,0,0x481),
    DN(Gs6,7,0x481),
    DN(___,0,0x481),
    DN(Gs6,6,0x481),
    DN(___,0,0x481),
    DN(As6,5,0x481),
    DN(___,0,0x481),
    DN(Gs6,4,0x481),
    DN(___,0,0x481),
    DN(G_6,3,0x481),
    DN(___,0,0x481),
    DN(F_6,2,0x481),
    DN(___,0,0x481),
};
static const unsigned char P33[] = {
    DN(G_6,1,0x481),
    DN(G_6,2,0x481),
    DN(G_5,3,0x481),
    DN(G_5,4,0x481),
    DN(___,0,0xE00),
    DN(___,0,0x000),
    DN(___,0,0x000),
    DN(G_6,6,0x481),
    DN(G_7,7,0x481),
    DN(G_7,8,0x481),
    DN(F_7,9,0x481),
    DN(Ds7,10,0x481),
    DN(D_7,11,0x481),
    DN(___,0,0x481),
    DN(C_7,12,0x481),
    DN(___,0,0x481),
    DN(B_6,13,0x481),
    DN(___,0,0x481),
    DN(C_7,12,0x481),
    DN(___,0,0x481),
    DN(Ds7,11,0x481),
    DN(___,0,0x481),
    DN(C_7,10,0x481),
    DN(___,0,0x481),
    DN(Gs6,9,0x481),
    DN(___,0,0x481),
    DN(Ds6,8,0x481),
    DN(___,0,0x481),
    DN(D_7,7,0x481),
    DN(___,0,0x481),
    DN(C_7,6,0x481),
    DN(___,0,0x481),
    DN(As6,5,0x481),
    DN(A_6,4,0x481),
    DN(G_6,3,0x481),
    DN(C_6,2,0x481),
    DN(B_5,1,0x481),
    DN(___,0,0x481),
    DN(C_6,2,0x481),
    DN(___,0,0x481),
    DN(G_6,3,0x481),
    DN(As6,4,0x481),
    DN(A_6,5,0x481),
    DN(G_6,6,0x481),
    DN(Gs6,7,0x481),
    DN(___,0,0x481),
    DN(As6,8,0x481),
    DN(___,8,0x481),
    DN(C_7,9,0x481),
    DN(___,9,0x481),
    DN(Ds7,10,0x481),
    DN(___,0,0x481),
    DN(D_7,11,0x481),
    DN(___,0,0x481),
    DN(F_7,12,0x481),
    DN(___,0,0x481),
    DN(E_7,13,0x481),
    DN(___,0,0x481),
    DN(D_7,12,0x481),
    DN(___,0,0x481),
    DN(Ds7,11,0x481),
    DN(___,0,0x481),
    DN(C_7,10,0x481),
    DN(___,0,0x481),
};

static const unsigned char* const order1[] = {P0,P0,P0,P0,P0,P0,P0,P0,P0,P0,P0,P0,P0,P0,P0,P0,P0,P0};
static const unsigned char* const order2[] = {P13,P14,P13,P14,P18,P15,P18,P16,P18,P15,P17,P19,P20,P21,P22,P27,P28,P27};
static const unsigned char* const order3[] = {P2,P3,P4,P5,P6,P7,P6,P8,P9,P10,P9,P23,P24,P25,P26,P31,P32,P33};
static const unsigned char* const order4[] = {P1,P1,P1,P1,P1,P1,P1,P1,P1,P1,P11,P12,P12,P12,P12,P30,P1,P1};

static const hUGEDutyInstr_t duty_instruments[] = {
    {8,0,240,0,128},
    {8,64,240,0,128},
    {8,128,240,0,128},
    {8,192,240,0,128},
    {8,0,241,0,128},
    {8,64,241,0,128},
    {8,128,241,0,128},
    {8,192,241,0,128},
    {8,0,192,0,128},
    {8,128,240,0,128},
    {8,128,240,0,128},
    {8,128,240,0,128},
    {8,128,240,0,128},
    {8,128,240,0,128},
    {8,128,240,0,128},
};
static const hUGEWaveInstr_t wave_instruments[] = {
    {0,32,0,0,128},
    {0,32,1,0,128},
    {0,32,2,0,128},
    {0,32,3,0,128},
    {0,32,4,0,128},
    {0,32,5,0,128},
    {0,32,6,0,128},
    {0,32,7,0,128},
    {0,32,8,0,128},
    {0,32,9,0,128},
    {0,32,10,0,128},
    {0,32,11,0,128},
    {0,32,12,0,128},
    {0,32,13,0,128},
    {0,32,14,0,128},
};
static const hUGENoiseInstr_t noise_instruments[] = {
    {241,0,0,0,0},
    {113,0,0,0,0},
    {242,0,0,0,0},
    {114,0,0,0,0},
    {112,0,128,0,0},
    {240,0,0,0,0},
    {240,0,0,0,0},
    {240,0,0,0,0},
    {240,0,0,0,0},
    {240,0,0,0,0},
    {240,0,0,0,0},
    {240,0,0,0,0},
    {240,0,0,0,0},
    {240,0,0,0,0},
    {240,0,0,0,0},
};

static const unsigned char waves[] = {
    0,0,0,0,0,0,0,0,255,255,255,255,255,255,255,255,
    0,0,0,0,0,0,0,0,15,255,255,255,255,255,255,255,
    0,0,0,0,0,0,0,0,0,255,255,255,255,255,255,255,
    0,0,0,0,0,0,0,0,0,15,255,255,255,255,255,255,
    0,0,0,0,0,0,0,0,0,0,255,255,255,255,255,255,
    0,0,0,0,0,0,0,0,0,0,15,255,255,255,255,255,
    0,0,0,0,0,0,0,0,0,0,0,255,255,255,255,255,
    0,0,0,0,0,0,0,0,0,0,0,15,255,255,255,255,
    0,0,0,0,0,0,0,0,0,0,0,0,255,255,255,255,
    0,0,0,0,0,0,0,0,0,0,0,0,15,255,255,255,
    0,0,0,0,0,0,0,0,0,0,0,0,0,255,255,255,
    0,0,0,0,0,0,0,0,0,0,0,0,0,15,255,255,
    0,0,0,0,0,0,0,0,0,0,0,0,0,0,255,255,
    0,17,34,51,68,85,102,119,136,153,170,187,204,221,238,255,
    1,35,69,103,137,171,205,239,254,220,186,152,118,84,50,16,
    255,255,255,255,255,255,255,255,255,255,255,255,255,255,255,255,
};

const hUGESong_t MUS_LIFE = {3, &order_cnt, order1, order2, order3,order4, duty_instruments, wave_instruments, noise_instruments, NULL, waves};
